<svg width="13" height="12" fill="none" xmlns="http://www.w3.org/2000/svg"><path d="M12.2399 5.77539c.2247-.24376.203-.61738-.0485-.83428L6.65187.159738c-.25144-.2169007-.65456-.212357-.9007.010243L.19278 5.19603c-.246147.2226-.258228.59574-.026748.83309l.139357.14316c.231197.23735.604902.26565.834161.06302l.4154-.36696v5.37236c0 .3296.27076.5965.60466.5965h2.16668c.3339 0 .60466-.2669.60466-.5965V7.48221h2.76361v3.75849c-.0048.3294.23411.5962.56802.5962h2.29612c.3339 0 .6047-.2668.6047-.5964V5.94398s.1147.09917.2563.22189c.1413.12248.438.02427.6627-.21973l.1575-.17075z" fill="#D31342"/></svg>